inDegrees=no
num_controls=7
num_derivatives=13
num_iterations=141
num_multipliers=7
num_parameters=0
num_slacks=7
num_states=26
objective=6.089459
objective_accelerations=0.630637
objective_balance=0.064165
objective_effort=0.527292
objective_height=4.820566
objective_ligament=0.046799
solver_duration=1465.003510
status=Solve_Succeeded
success=true
DataType=double
version=3
OpenSimVersion=4.4-2022-07-23-0e9fedc
endheader
time	/jointset/ground_pelvis/pelvis_tilt/value	/jointset/ground_pelvis/pelvis_tx/value	/jointset/ground_pelvis/pelvis_ty/value	/jointset/hip_l/hip_flexion_l/value	/jointset/hip_l/hip_adduction_l/value	/jointset/hip_l/hip_rotation_l/value	/jointset/back/lumbar_extension/value	/jointset/patellofemoral_l/patellar_flexion_l/value	/jointset/knee_l/knee_flexion_l/value	/jointset/knee_l/knee_adduction_l/value	/jointset/knee_l/knee_rotation_l/value	/jointset/ankle_l/ankle_angle_l/value	/jointset/subtalar_l/subtalar_angle_l/value	/jointset/ground_pelvis/pelvis_tilt/speed	/jointset/ground_pelvis/pelvis_tx/speed	/jointset/ground_pelvis/pelvis_ty/speed	/jointset/hip_l/hip_flexion_l/speed	/jointset/hip_l/hip_adduction_l/speed	/jointset/hip_l/hip_rotation_l/speed	/jointset/back/lumbar_extension/speed	/jointset/patellofemoral_l/patellar_flexion_l/speed	/jointset/knee_l/knee_flexion_l/speed	/jointset/knee_l/knee_adduction_l/speed	/jointset/knee_l/knee_rotation_l/speed	/jointset/ankle_l/ankle_angle_l/speed	/jointset/subtalar_l/subtalar_angle_l/speed	/forceset/tau_hip_flexion_l	/forceset/tau_hip_adduction_l	/forceset/tau_hip_rotation_l	/forceset/tau_knee_flexion_l	/forceset/tau_ankle_angle_l	/forceset/tau_subtalar_angle_l	/forceset/tau_lumbar_extension	lambda_cid13_p0	lambda_cid13_p1	lambda_cid13_p2	lambda_cid13_p3	lambda_cid13_p4	lambda_cid13_p5	lambda_cid14_p0	/jointset/ground_pelvis/pelvis_tilt/accel	/jointset/ground_pelvis/pelvis_tx/accel	/jointset/ground_pelvis/pelvis_ty/accel	/jointset/hip_l/hip_flexion_l/accel	/jointset/hip_l/hip_adduction_l/accel	/jointset/hip_l/hip_rotation_l/accel	/jointset/back/lumbar_extension/accel	/jointset/patellofemoral_l/patellar_flexion_l/accel	/jointset/knee_l/knee_flexion_l/accel	/jointset/knee_l/knee_adduction_l/accel	/jointset/knee_l/knee_rotation_l/accel	/jointset/ankle_l/ankle_angle_l/accel	/jointset/subtalar_l/subtalar_angle_l/accel	gamma_cid13_p0	gamma_cid13_p1	gamma_cid13_p2	gamma_cid13_p3	gamma_cid13_p4	gamma_cid13_p5	gamma_cid14_p0
1	-0.1443772688936946	-0.05344138699017752	0.6557694117540128	1.424500027968271	-0.3231650869560591	0.07168880447272603	-0.9599310345204278	1.478336634905493	1.478336634905507	-0.0292237662783784	-0.1745325653958937	0.3035553285854339	0.0826720119765488	0.1021975716515003	0.02423844354213109	0.07175429084698198	-0.2997932888852466	-0.008218510722824519	-0.06221372171239887	8.496094997107531e-05	-0.1583674545102308	-0.1583674545102538	-0.004354804540400352	-9.172667508642235e-06	0.03070009013782985	0.004233977520519837	-0.4056405497685772	0.0236291819064338	-0.0004341533370906394	-0.3728975563759666	0.003757481008699986	0.02214158081243235	0.4439063937601021	-50.78697019607422	1.235603812110593	-2.889244721916031	17.9785024736274	-810.6670156060349	-62.61492173148422	-0.04062912438590423	0.8977619887912367	-0.07214164644783191	1.71989948121155	-5.392931580665238	-0.1265698120835369	-1.581192700036018	-0.01698009875377333	-5.354682499856611	-5.354682499856446	-0.5704059654963435	-0.02010681432853053	-1.244277414484206	-0.7312164504650981	-7.921414684005654e-09	1.112922583249647e-08	2.927279961123197e-08	1.118934366922488e-09	-2.139494785293304e-08	1.213859436416936e-07	-1.417854958844907e-08
1.01	-0.143310633771691	-0.05320254832685856	0.6565727353322077	1.421233182870669	-0.3232528539284329	0.07098726708633757	-0.959930597265614	1.47648561936426	1.476485619364158	-0.02929442358195973	-0.1745325082418507	0.3038001992170675	0.0826788577329336	0.1111428730470377	0.02353638669709416	0.0888987786475476	-0.3535629238848159	-0.009326704140392852	-0.07808866143369506	4.290547695747148e-07	-0.2118249994167674	-0.2118249994167804	-0.00977169729696958	1.707661285813773e-05	0.01825959187001377	-0.00286061835880426	-0.404681957627942	0.02378702243357299	-0.0004883641593564974	-0.3727466121729295	0.003757331070334235	0.02229985382105675	0.4433916468134907	-50.7402764058092	1.143795019782262	-2.857594143699782	17.81521150487172	-810.1771632228247	-62.71634319624212	-0.04065937437169019	0.8949248941788098	-0.06817215519373224	1.709971107025599	-5.367061406070277	-0.1017179767835202	-1.589896540207247	-0.004498895103368163	-5.339688322142355	-5.339688322140964	-0.5266000638417988	0.01347540921273635	-1.246104192669006	-0.6979554438952975	-1.386694434025885e-08	-1.769869000290469e-09	5.0270907433595e-08	4.526311060866683e-09	-2.694762638552555e-08	1.370802915815142e-07	-2.002089209617739e-08
1.02	-0.1421541434998797	-0.05297051712232245	0.6575471533239184	1.417429025033783	-0.3233514576090202	0.07012712991632927	-0.9599310671604776	1.474100348806745	1.474100348806524	-0.02941910363972733	-0.1745322916731007	0.3039202312340755	0.08261488267307915	0.1201686016123251	0.02287695178556125	0.1059731735499811	-0.4072558367430852	-0.01038585236556413	-0.09393367843622616	-9.646924843011586e-05	-0.2652184577669079	-0.2652184577669108	-0.0151593553777224	2.271029295804427e-05	0.005732367212648999	-0.009930185727300705	-0.4037233654872955	0.02394486296070973	-0.0005425749816204171	-0.3725956679698912	0.003757181131966361	0.02245812682967669	0.4428768998668895	-50.70453305468628	1.054490215912997	-2.82701282275109	17.71146577533456	-809.8277424243726	-62.79667481312021	-0.04069198725983131	0.9138474227413064	-0.06361725974706943	1.705880901585112	-5.377587152405226	-0.1167607736041238	-1.575208156283034	-0.01945338035226488	-5.341865188577422	-5.341865188577202	-0.5645590303330336	-0.02422993438192297	-1.261622692394022	-0.7262107482996016	-1.973811289430595e-08	-1.407866152800283e-08	7.117048109509336e-08	7.990538841896553e-09	-3.221148779341345e-08	1.52516764305304e-07	-2.575134130043335e-08
1.03	-0.1409075652660317	-0.05274467480482169	0.6586918721795829	1.413088856843829	-0.3234603623506977	0.06910878278507479	-0.9599307740989891	1.471181606069154	1.471181606069071	-0.0295974883542961	-0.1745320427275263	0.3039147623563069	0.08248051305840598	0.1291035432961374	0.02231804126189707	0.1229498594889528	-0.4607125909264699	-0.01138373285881722	-0.1097234220933847	0.0003323804392849166	-0.3185057757078509	-0.3185057757078618	-0.02051040271404277	2.884843468791865e-05	-0.006820053581455873	-0.01692383503203803	-0.4038096423444538	0.02418074407291173	-0.0006260819467973224	-0.3720027587044318	0.003757284710250916	0.02270064876686753	0.4436819875803321	-50.67942629557261	0.9165468089084289	-2.772786725762971	17.19894353464425	-810.0297662532687	-62.87480167037951	-0.04073165360921115	0.8767892384085919	-0.04804620458808669	1.690444199535888	-5.319941947970508	-0.08960232304664006	-1.579034676118632	0.1006489532609084	-5.318511659420551	-5.318511659421984	-0.5193208473835919	0.01332346393201706	-1.251141909876125	-0.6829630721606952	-2.560852266159583e-08	-2.638143056280626e-08	9.206904930597068e-08	1.145534673605995e-08	-3.747240208778396e-08	1.679506056493383e-07	-3.148064873628652e-08
1.04	-0.1395729432759049	-0.05252362524373999	0.6600057342465346	1.4082160766327	-0.3235789060244822	0.06793290277611938	-0.9599208735773948	1.46773072083964	1.467730720839701	-0.02982917219464769	-0.1745316748454791	0.3037839512432056	0.08227680274056526	0.1377773528682445	0.0219184005017482	0.1398018158072273	-0.5137782409764721	-0.01231363878650448	-0.1254402539779992	0.001825022524077253	-0.3716469561515047	-0.3716469561515277	-0.02581918053444521	4.649759567618738e-05	-0.01933607985385806	-0.02379832636077392	-0.4038959192016368	0.02441662518512254	-0.0007095889119998032	-0.3714098494389735	0.003757388288543212	0.02294317070407461	0.4444870752937521	-50.66549528960896	0.7811660904982475	-2.719661234914621	16.74526689358804	-810.3753801252349	-62.93260923816162	-0.04077361563017433	0.8616210004003598	-0.03176330704403543	1.680934977445632	-5.299366325728739	-0.1031658604910494	-1.560625801774348	0.19330509906128	-5.312637689119541	-5.312637689120131	-0.5561051271494585	-0.02192773053045974	-1.254343788053548	-0.7023791530994705	-3.099394917345745e-08	-4.222798189373265e-08	1.123258333033367e-07	1.277976745744345e-08	-4.318651673107086e-08	1.777825879541819e-07	-3.712935329856054e-08
1.05	-0.1381527918629292	-0.05230570512304451	0.661487444219105	1.402814557835689	-0.3237064148291505	0.06660026181011713	-0.9598905367570175	1.463749268686467	1.463749268686493	-0.03011374025470394	-0.1745311202682066	0.3035282271508672	0.08200498196817066	0.146218032478434	0.02169931164374521	0.1565146124734124	-0.5664636336718633	-0.01317766970004699	-0.1410738458519887	0.004440332558893262	-0.4246082664054289	-0.4246082664054524	-0.03108662517518982	6.074572417151837e-05	-0.03179615067831986	-0.03054255720453443	-0.4040483229238938	0.02468029506199046	-0.0008194704326901435	-0.3704599689012715	0.003798516562778559	0.02327165161979351	0.4454428475820865	-50.6151296480843	0.5886378907112493	-2.642077682406032	16.12942998261237	-810.5405253760084	-63.03069389122929	-0.04082558783683843	0.8300530379876767	-0.01192565413367722	1.662607235310799	-5.243848028885091	-0.07646315583039426	-1.562648181488681	0.3253426063810831	-5.282587869665313	-5.282587869664988	-0.5109224977626772	0.01258056887178336	-1.239956110639122	-0.6569603968368146	-3.636421995858694e-08	-5.818527642141285e-08	1.325625615440304e-07	1.403730107967758e-08	-4.89147938852614e-08	1.874395121640508e-07	-4.27755390210352e-08
1.06	-0.1366492813345221	-0.05208896468672004	0.6631355132031594	1.396888040654249	-0.3238422522327614	0.06511170046511358	-0.9598281071061339	1.459239261395528	1.459239261395508	-0.03045075443420995	-0.1745305273127341	0.3031482788740849	0.08166641581797365	0.1544491759550088	0.02168246362754622	0.1730736181038506	-0.6187779178648746	-0.01397935857536626	-0.156624329777078	0.008243588621283703	-0.4773579837048093	-0.4773579837048302	-0.03630840442496566	5.41732259540899e-05	-0.0441809167426489	-0.03714740192119621	-0.404200726646096	0.02494396493884719	-0.0009293519533458812	-0.3695100883635667	0.003839644836999575	0.0236001325354897	0.4463986198704697	-50.57620970791346	0.3987744715977473	-2.565673669509339	15.57085049858221	-810.8531332313061	-63.10965466170234	-0.04088001731578753	0.8197137736774404	0.008684861316736946	1.650176770296244	-5.225144625252736	-0.09069745284649029	-1.544004211994406	0.4308943045761138	-5.270319098210757	-5.27031909821074	-0.5469720489557109	-0.026091855873215	-1.239282836027059	-0.6745019276798738	-4.095701733988967e-08	-7.397040941689754e-08	1.511163292797981e-07	1.440848559767728e-08	-5.426909357969458e-08	1.920488914828214e-07	-4.764788072828421e-08
